<svg width="41" height="41" fill="none" xmlns="http://www.w3.org/2000/svg"><path d="M20.5 1.538c10.455 0 18.962 8.507 18.962 18.962S30.956 39.462 20.5 39.462 1.538 30.956 1.538 20.5 10.045 1.538 20.5 1.538zM20.5 0C9.174 0 0 9.174 0 20.5S9.174 41 20.5 41 41 31.826 41 20.5 31.826 0 20.5 0z" fill="#fff"/><path d="M17.783 27.009l9.738-5.638c.307-.205.512-.512.512-.871s-.205-.718-.512-.871l-9.738-5.638a.931.931 0 00-1.025 0c-.307.205-.512.513-.512.871v11.275c0 .36.205.718.512.872.308.153.666.205 1.025 0z" fill="#fff"/></svg>